<?xml version="1.0" encoding="utf-8"?>
<!-- Generator: Adobe Illustrator 27.5.0, SVG Export Plug-In . SVG Version: 6.00 Build 0)  -->
<svg version="1.1" xmlns="http://www.w3.org/2000/svg" xmlns:xlink="http://www.w3.org/1999/xlink" x="0px" y="0px"
	 viewBox="0 0 500 500" style="enable-background:new 0 0 500 500;" xml:space="preserve">
<g id="Background_Complete">
	<g>
		<g>
			<rect y="382.398" style="fill:#EBEBEB;" width="500" height="0.25"/>
			<path style="fill:#EBEBEB;" d="M237.014,337.8H43.915c-3.147,0-5.708-2.561-5.708-5.708V60.66c0-3.147,2.561-5.708,5.708-5.708
				h193.099c3.146,0,5.707,2.561,5.707,5.708v271.432C242.721,335.239,240.16,337.8,237.014,337.8z M43.915,55.203
				c-3.01,0-5.458,2.448-5.458,5.458v271.432c0,3.01,2.448,5.458,5.458,5.458h193.099c3.009,0,5.457-2.448,5.457-5.458V60.66
				c0-3.009-2.448-5.458-5.457-5.458H43.915z"/>
			<path style="fill:#EBEBEB;" d="M453.31,337.8H260.212c-3.147,0-5.707-2.561-5.707-5.708V60.66c0-3.147,2.561-5.708,5.707-5.708
				H453.31c3.148,0,5.708,2.561,5.708,5.708v271.432C459.019,335.239,456.458,337.8,453.31,337.8z M260.212,55.203
				c-3.009,0-5.457,2.448-5.457,5.458v271.432c0,3.01,2.448,5.458,5.457,5.458H453.31c3.01,0,5.458-2.448,5.458-5.458V60.66
				c0-3.009-2.448-5.458-5.458-5.458H260.212z"/>
		</g>
		<g>
			<rect x="418.333" y="391.922" style="fill:#EBEBEB;" width="31.568" height="0.25"/>
			<rect x="301.926" y="389.208" style="fill:#EBEBEB;" width="33.408" height="0.25"/>
			<rect x="396.586" y="401.208" style="fill:#EBEBEB;" width="62.433" height="0.25"/>
			<rect x="52.459" y="399.528" style="fill:#EBEBEB;" width="19.235" height="0.25"/>
			<rect x="80.597" y="399.528" style="fill:#EBEBEB;" width="30.292" height="0.25"/>
			<rect x="189.578" y="395.306" style="fill:#EBEBEB;" width="54.556" height="0.25"/>
		</g>
	</g>
	<g>
		<g>
			<path style="fill:#E6E6E6;" d="M456.453,255.244c-10.142-4.252-26.945-0.149-40.865,16.73
				c-6.432,7.8-12.624,19.235-14.296,30.943c0.112-13.357,0.244-27.71,0.377-41.254c2.15-8.862,4.128-12.908,7.188-19.058
				c10.211-20.522,18.652-18.257,32.52-34.316c23.073-26.718,36.296-77.13,13.34-57.042c-20.807,18.208-30.875,36.426-37.872,52.238
				c-9.455,21.365-13.254,36.272-15.107,51.239c0.129-12.721,0.256-24.401,0.364-33.413c0.354-29.394,1.156-38.843,1.305-41.759
				c0.36-7.074,2.696-11.187,3.343-12.204c5.471-8.586,14.056-14.209,22.473-23.996c19.605-22.796,30.923-51.042,21.482-53.658
				c-9.872-2.734-22.846,9.707-37.259,38.911c-8.261,16.74-10.364,20.701-12.035,53.502c-0.145,2.851-0.767,13.592-1.068,28.515
				c-2.333-16.055-6.761-31.985-14.499-42.573c-14.905-20.394-26.241-22.341-34.506-20.394c-8.264,1.946-4.796,23.359,4.524,34.804
				c14.025,17.223,37.393,13.555,44.326,36.468c-0.348,20.228-0.604,45.854-0.742,69.714c-2.36-12.322-4.825-22.57-10.245-32.219
				c-10.08-17.944-22.48-25.771-31.014-17.319c-5.305,5.255,0.851,19.981,11.956,26.032c11.271,6.142,20.514,14.639,24.095,19.743
				c0.835,1.19,3.602,5.756,5.183,8.38c-0.153,29.129-0.127,54.842,0.122,63.609l1.486,0.087
				c-0.088-2.264-0.019-17.081,0.126-36.691c2.455-24.477,19.74-25.807,30.789-30.46
				C451.662,281.499,466.594,259.496,456.453,255.244z"/>
			<g>
				<path style="fill:#E6E6E6;" d="M386.006,382.398h29.146c1.592,0,2.965-0.932,3.281-2.229l2.069-36.14h-39.847l2.069,36.14
					C383.041,381.466,384.413,382.398,386.006,382.398z"/>
				<path style="fill:#F5F5F5;" d="M381.386,356.333h38.386c0.92,0,1.693-1.21,1.796-2.81l0.785-12.206
					c0.121-1.875-0.718-3.517-1.796-3.517h-39.956c-1.078,0-1.916,1.642-1.796,3.517l0.785,12.206
					C379.693,355.124,380.466,356.333,381.386,356.333z"/>
			</g>
		</g>
		<g>
			<g>
				<rect x="148.174" y="304.466" style="fill:#F0F0F0;" width="37.833" height="71.312"/>
				<rect x="155.438" y="375.778" style="fill:#F0F0F0;" width="186.574" height="6.621"/>
				
					<rect x="186.007" y="304.466" transform="matrix(-1 -1.224647e-16 1.224647e-16 -1 535.2832 680.2435)" style="fill:#FAFAFA;" width="163.27" height="71.312"/>
				
					<rect x="200.881" y="313.141" transform="matrix(-1 -1.224647e-16 1.224647e-16 -1 535.2833 648.2253)" style="fill:#F0F0F0;" width="133.521" height="21.944"/>
				
					<rect x="200.881" y="341.334" transform="matrix(-1 -1.224647e-16 1.224647e-16 -1 535.2833 704.6122)" style="fill:#F0F0F0;" width="133.521" height="21.944"/>
				<path style="fill:#FAFAFA;" d="M284.019,315.119h-32.755c-1.266,0-2.302-1.036-2.302-2.301v-0.096
					c0-1.266,1.036-2.302,2.302-2.302h32.755c1.266,0,2.302,1.036,2.302,2.302v0.096
					C286.321,314.083,285.285,315.119,284.019,315.119z"/>
				<path style="fill:#FAFAFA;" d="M284.019,343.312h-32.755c-1.266,0-2.302-1.036-2.302-2.302v-0.096
					c0-1.266,1.036-2.302,2.302-2.302h32.755c1.266,0,2.302,1.036,2.302,2.302v0.096
					C286.321,342.277,285.285,343.312,284.019,343.312z"/>
			</g>
			<rect x="186.007" y="298.072" style="fill:#F0F0F0;" width="168.311" height="6.394"/>
			
				<rect x="142.887" y="298.072" transform="matrix(-1 -1.224647e-16 1.224647e-16 -1 328.8939 602.5372)" style="fill:#E6E6E6;" width="43.119" height="6.394"/>
		</g>
		<g>
			<path style="fill:#F0F0F0;" d="M111.844,326.481c-4.32-2.264-11.902-1.089-18.694,5.842c-3.139,3.203-6.309,8.021-7.492,13.132
				c0.556-5.899,1.16-12.236,1.733-18.217c1.286-3.835,2.314-5.548,3.9-8.149c5.292-8.681,8.936-7.36,15.674-13.93
				c11.211-10.931,18.968-32.707,8.061-24.701c-9.886,7.257-15.027,14.925-18.719,21.647c-4.989,9.083-7.234,15.526-8.621,22.07
				c0.54-5.617,1.039-10.774,1.429-14.752c1.272-12.976,1.985-17.122,2.162-18.405c0.428-3.113,1.616-4.841,1.941-5.266
				c2.744-3.587,6.751-5.746,10.842-9.751c9.529-9.33,15.603-21.383,11.53-22.897c-4.259-1.583-10.465,3.423-17.942,15.781
				c-4.286,7.084-5.366,8.755-7.349,23.187c-0.172,1.255-0.855,5.978-1.554,12.561c-0.422-7.183-1.774-14.392-4.791-19.364
				c-5.813-9.578-10.748-10.869-14.475-10.323c-3.726,0.547-3.006,10.141,0.678,15.552c5.544,8.144,16.01,7.41,18.204,17.798
				c-0.922,8.926-2.007,20.241-2.975,30.78c-0.575-5.535-1.275-10.157-3.304-14.627c-3.773-8.313-8.956-12.242-13.048-8.831
				c-2.544,2.121-0.383,8.862,4.295,11.958c4.748,3.142,8.51,7.248,9.898,9.64c0.324,0.558,1.373,2.68,1.972,3.9
				c-1.173,12.867-2.138,24.231-2.361,28.115l0.653,0.095c0.047-1.004,0.64-7.549,1.449-16.21
				c2.014-10.723,9.703-10.655,14.763-12.292C108.731,337.902,116.165,328.745,111.844,326.481z"/>
			<path style="fill:#E6E6E6;" d="M44.942,304.2c5.592-2.523,15.025-0.486,23.04,8.72c3.704,4.254,7.328,10.538,8.435,17.042
				c-0.262-7.447-0.55-15.45-0.827-23.001c-1.331-4.91-2.495-7.137-4.294-10.521c-6.001-11.292-10.674-9.903-18.648-18.651
				c-13.267-14.555-21.394-42.471-8.292-31.612c11.876,9.843,17.763,19.853,21.901,28.566c5.592,11.773,7.934,20.03,9.191,28.349
				c-0.262-7.093-0.507-13.604-0.702-18.628c-0.637-16.387-1.225-21.645-1.352-23.269c-0.307-3.94-1.671-6.198-2.047-6.756
				c-3.179-4.707-8.051-7.714-12.891-13.046c-11.274-12.42-18.008-28.003-12.782-29.603c5.464-1.672,12.886,5.072,21.36,21.143
				c4.857,9.212,6.089,11.389,7.511,29.657c0.124,1.588,0.631,7.569,1.022,15.886c1.061-8.988,3.292-17.939,7.449-23.959
				c8.008-11.596,14.3-12.852,18.938-11.889c4.638,0.962,3.024,12.955-2.003,19.477c-7.564,9.815-20.651,8.118-24.174,21
				c0.497,11.275,1.022,25.563,1.456,38.867c1.132-6.907,2.353-12.659,5.232-18.121c5.353-10.158,12.152-14.708,17.037-10.122
				c3.037,2.851-0.176,11.156-6.278,14.696c-6.194,3.594-11.222,8.471-13.142,11.371c-0.448,0.676-1.923,3.264-2.765,4.751
				c0.521,16.242,0.89,30.582,0.883,35.475l-0.827,0.071c0.015-1.264-0.245-9.526-0.619-20.46
				c-1.735-13.613-11.394-14.097-17.626-16.527C48.006,318.77,39.35,306.722,44.942,304.2z"/>
			<g>
				<path style="fill:#E6E6E6;" d="M68.59,382.398h25.855c1.413,0,2.63-0.827,2.911-1.978l1.835-32.059H63.843l1.835,32.059
					C65.96,381.571,67.177,382.398,68.59,382.398z"/>
				<path style="fill:#F5F5F5;" d="M64.492,359.276h34.052c0.816,0,1.502-1.073,1.593-2.492l0.696-10.828
					c0.107-1.664-0.637-3.12-1.593-3.12H63.795c-0.956,0-1.7,1.457-1.593,3.12l0.696,10.828
					C62.99,358.203,63.675,359.276,64.492,359.276z"/>
			</g>
		</g>
		<g>
			<rect x="60.192" y="79.859" style="fill:#E6E6E6;" width="213.041" height="120.46"/>
			<rect x="61.318" y="79.859" style="fill:#F5F5F5;" width="218.571" height="120.46"/>
			<path style="fill:#FFFFFF;" d="M66.635,190.818V89.359c0-2.31,1.873-4.183,4.183-4.183h199.569c2.31,0,4.184,1.873,4.184,4.183
				v101.458c0,2.311-1.873,4.184-4.184,4.184H70.818C68.508,195.001,66.635,193.128,66.635,190.818z"/>
		</g>
	</g>
</g>
<g id="Background_Simple" style="display:none;">
	<g style="display:inline;">
		<path style="fill:#407BFF;" d="M317.868,86.025c-27.213-20.672-76.222-21.595-107.562,4.909
			c-34.61,29.269-36.798,82.64-71.763,109.157c-35.556,26.965-77.017,13.941-81.394,80.375
			c-3.374,51.206,36.135,51.301,69.212,57.671c59.384,11.437,168.257,67.455,221.524-15.481
			C408.556,228.194,378.871,132.366,317.868,86.025z"/>
		<path style="opacity:0.9;fill:#FFFFFF;" d="M317.868,86.025c-27.213-20.672-76.222-21.595-107.562,4.909
			c-34.61,29.269-36.798,82.64-71.763,109.157c-35.556,26.965-77.017,13.941-81.394,80.375
			c-3.374,51.206,36.135,51.301,69.212,57.671c59.384,11.437,168.257,67.455,221.524-15.481
			C408.556,228.194,378.871,132.366,317.868,86.025z"/>
	</g>
</g>
<g id="Shadow_1_">
	<ellipse id="_x3C_Path_x3E__251_" style="fill:#F5F5F5;" cx="250" cy="416.238" rx="193.889" ry="11.323"/>
</g>
<g id="Calendar">
	<g>
		<path style="fill:#407BFF;" d="M401.912,312.407h-23.995v-1h23.995c5.569,0,10.959-3.281,13.731-8.359l0.877,0.478
			C413.576,308.922,407.842,312.407,401.912,312.407z"/>
		<rect x="363.333" y="311.407" style="fill:#407BFF;" width="9.834" height="1"/>
		<path style="fill:#407BFF;" d="M401.912,308.907H121.11c-6.6,0-11.529-5.4-10.953-12l15.177-174c0.576-6.6,6.447-12,13.047-12
			h280.802c6.6,0,11.529,5.4,10.953,12l-15.177,174C414.383,303.507,408.512,308.907,401.912,308.907z"/>
		<path style="fill:#FFFFFF;" d="M396.062,305.261H122.265c-5.62,0-9.817-4.598-9.326-10.218l13.826-158.515
			c0.141-1.62,1.57-2.934,3.19-2.934h288.364c1.621,0,2.82,1.314,2.678,2.934L407.17,295.043
			C406.68,300.663,401.681,305.261,396.062,305.261z"/>
		<g>
			<path style="fill:#263238;" d="M157.156,125.656c-8.133,0-14.172-6.616-13.463-14.749s7.903-14.75,16.036-14.75
				s14.172,6.617,13.463,14.75h-6c0.421-4.825-3.162-8.75-7.986-8.75c-4.824,0-9.091,3.925-9.512,8.75
				c-0.421,4.824,3.162,8.749,7.986,8.749L157.156,125.656z"/>
			<path style="fill:#263238;" d="M216.507,125.656c-8.133,0-14.173-6.616-13.464-14.749s7.904-14.75,16.036-14.75
				s14.172,6.617,13.462,14.75h-6c0.421-4.825-3.162-8.75-7.986-8.75c-4.825,0-9.092,3.925-9.513,8.75
				c-0.421,4.824,3.162,8.749,7.987,8.749L216.507,125.656z"/>
			<path style="fill:#263238;" d="M275.859,125.656c-8.133,0-14.173-6.616-13.464-14.749c0.709-8.133,7.904-14.75,16.036-14.75
				c8.133,0,14.172,6.617,13.462,14.75h-6c0.421-4.825-3.162-8.75-7.986-8.75c-4.825,0-9.092,3.925-9.513,8.75
				c-0.421,4.824,3.162,8.749,7.987,8.749L275.859,125.656z"/>
			<path style="fill:#263238;" d="M335.21,125.656c-8.133,0-14.172-6.616-13.463-14.749c0.709-8.133,7.903-14.75,16.036-14.75
				c8.133,0,14.173,6.617,13.463,14.75h-6c0.421-4.825-3.162-8.75-7.987-8.75c-4.824,0-9.091,3.925-9.512,8.75
				c-0.421,4.824,3.162,8.749,7.986,8.749L335.21,125.656z"/>
			<path style="fill:#263238;" d="M394.561,125.656c-8.133,0-14.172-6.616-13.463-14.749s7.903-14.75,16.035-14.75
				c8.133,0,14.172,6.617,13.462,14.75h-6c0.421-4.825-3.162-8.75-7.986-8.75c-4.824,0-9.091,3.925-9.512,8.75
				c-0.421,4.824,3.162,8.749,7.986,8.749L394.561,125.656z"/>
		</g>
		<g>
			<path style="fill:#E0E0E0;" d="M395.337,298.072H124.675c-0.276,0-0.48-0.224-0.456-0.5l13.49-154.664
				c0.024-0.276,0.267-0.5,0.544-0.5h270.662c0.276,0,0.48,0.224,0.456,0.5l-13.49,154.664
				C395.857,297.848,395.613,298.072,395.337,298.072z M125.262,297.072h269.662l13.403-153.664H138.665L125.262,297.072z"/>
			<path style="fill:#E0E0E0;" d="M398.035,267.138H127.373c-0.276,0-0.48-0.224-0.456-0.5c0.024-0.276,0.267-0.5,0.544-0.5h270.662
				c0.276,0,0.48,0.224,0.456,0.5C398.555,266.914,398.311,267.138,398.035,267.138z"/>
			<path style="fill:#E0E0E0;" d="M400.733,236.205H130.071c-0.276,0-0.48-0.224-0.456-0.5c0.024-0.276,0.267-0.5,0.544-0.5H400.82
				c0.276,0,0.48,0.224,0.456,0.5C401.253,235.982,401.01,236.205,400.733,236.205z"/>
			<path style="fill:#E0E0E0;" d="M403.431,205.273H132.769c-0.276,0-0.48-0.224-0.456-0.5c0.024-0.276,0.267-0.5,0.544-0.5h270.662
				c0.276,0,0.48,0.224,0.456,0.5C403.951,205.049,403.708,205.273,403.431,205.273z"/>
			<path style="fill:#E0E0E0;" d="M406.129,174.34H135.467c-0.276,0-0.48-0.224-0.456-0.5c0.024-0.276,0.267-0.5,0.544-0.5h270.662
				c0.276,0,0.48,0.224,0.456,0.5C406.649,174.116,406.406,174.34,406.129,174.34z"/>
			<path style="fill:#E0E0E0;" d="M361.504,298.072c-0.276,0-0.48-0.224-0.456-0.5l13.49-154.664c0.024-0.276,0.267-0.5,0.544-0.5
				c0.276,0,0.48,0.224,0.456,0.5l-13.49,154.664C362.023,297.848,361.78,298.072,361.504,298.072z"/>
			<path style="fill:#E0E0E0;" d="M327.671,298.072c-0.276,0-0.48-0.224-0.456-0.5l13.49-154.664c0.024-0.276,0.267-0.5,0.544-0.5
				c0.276,0,0.48,0.224,0.456,0.5l-13.49,154.664C328.19,297.848,327.947,298.072,327.671,298.072z"/>
			<path style="fill:#E0E0E0;" d="M293.838,298.072c-0.276,0-0.48-0.224-0.456-0.5l13.49-154.664c0.024-0.276,0.267-0.5,0.544-0.5
				s0.48,0.224,0.456,0.5l-13.49,154.664C294.358,297.848,294.114,298.072,293.838,298.072z"/>
			<path style="fill:#E0E0E0;" d="M260.006,298.072c-0.276,0-0.48-0.224-0.456-0.5l13.49-154.664c0.024-0.276,0.267-0.5,0.544-0.5
				c0.276,0,0.48,0.224,0.456,0.5l-13.49,154.664C260.526,297.848,260.282,298.072,260.006,298.072z"/>
			<path style="fill:#E0E0E0;" d="M226.173,298.072c-0.276,0-0.48-0.224-0.456-0.5l13.49-154.664c0.024-0.276,0.267-0.5,0.544-0.5
				c0.276,0,0.48,0.224,0.456,0.5l-13.49,154.664C226.693,297.848,226.449,298.072,226.173,298.072z"/>
			<path style="fill:#E0E0E0;" d="M192.34,298.072c-0.276,0-0.48-0.224-0.456-0.5l13.49-154.664c0.024-0.276,0.267-0.5,0.544-0.5
				c0.276,0,0.48,0.224,0.456,0.5l-13.49,154.664C192.859,297.848,192.616,298.072,192.34,298.072z"/>
			<path style="fill:#E0E0E0;" d="M158.508,298.072c-0.276,0-0.48-0.224-0.456-0.5l13.49-154.664c0.024-0.276,0.267-0.5,0.544-0.5
				c0.276,0,0.48,0.224,0.456,0.5l-13.49,154.664C159.027,297.848,158.784,298.072,158.508,298.072z"/>
		</g>
		<path style="fill:#407BFF;" d="M295.666,201.679h-20.672c-1.766,0-3.072-1.432-2.918-3.197l1.601-18.352
			c0.154-1.766,1.71-3.197,3.476-3.197h20.672c1.766,0,3.072,1.431,2.918,3.197l-1.601,18.352
			C298.988,200.248,297.431,201.679,295.666,201.679z"/>
		<path style="opacity:0.6;fill:#FFFFFF;" d="M295.666,201.679h-20.672c-1.766,0-3.072-1.432-2.918-3.197l1.601-18.352
			c0.154-1.766,1.71-3.197,3.476-3.197h20.672c1.766,0,3.072,1.431,2.918,3.197l-1.601,18.352
			C298.988,200.248,297.431,201.679,295.666,201.679z"/>
		<g>
			<polygon style="fill:#FFFFFF;" points="439.887,201.679 418.156,201.679 420.314,176.933 442.045,176.933 433.879,189.306 			"/>
			<path style="fill:#407BFF;" d="M440.705,202.18h-23.093l2.246-25.747h23.093l-8.495,12.873L440.705,202.18z M418.699,201.18
				h20.368l-5.764-11.874l7.835-11.873h-20.368L418.699,201.18z"/>
		</g>
		<path style="fill:#407BFF;" d="M360.441,232.612h-20.672c-1.766,0-3.072-1.431-2.918-3.197l1.601-18.352
			c0.154-1.766,1.71-3.197,3.476-3.197h20.672c1.766,0,3.072,1.431,2.918,3.197l-1.601,18.352
			C363.763,231.181,362.207,232.612,360.441,232.612z"/>
		<path style="opacity:0.4;fill:#FFFFFF;" d="M360.441,232.612h-20.672c-1.766,0-3.072-1.431-2.918-3.197l1.601-18.352
			c0.154-1.766,1.71-3.197,3.476-3.197h20.672c1.766,0,3.072,1.431,2.918,3.197l-1.601,18.352
			C363.763,231.181,362.207,232.612,360.441,232.612z"/>
		<path style="fill:#407BFF;" d="M400.054,170.747h-54.889c-1.766,0-3.072-1.432-2.918-3.197l1.601-18.352
			c0.154-1.766,1.71-3.197,3.476-3.197h54.889c1.766,0,3.072,1.431,2.918,3.197l-1.601,18.352
			C403.376,169.315,401.82,170.747,400.054,170.747z"/>
		<path style="fill:#407BFF;" d="M181.116,197.496c-8.338,0-15.288-2.945-20.213-8.598c-6.331-7.266-7.286-16.287-2.491-23.544
			c7.105-10.754,25.635-16.486,37.83-14.898c0.271,0.035,0.443,0.286,0.384,0.56c-0.059,0.274-0.327,0.463-0.597,0.433
			c-11.886-1.552-29.913,3.992-36.792,14.403c-5.415,8.195-2.285,16.921,2.451,22.354c6.61,7.587,15.629,8.648,22.03,8.2
			c12.191-0.85,25.547-7.816,33.233-17.335c2.149-2.663,5.453-7.769,3.429-12.049c-2.992-6.33-12.973-5.898-21.334-4.816
			c-0.268,0.038-0.511-0.158-0.523-0.432c-0.011-0.273,0.203-0.525,0.48-0.561c5.576-0.721,18.635-2.412,22.292,5.32
			c2.253,4.763-1.279,10.266-3.585,13.121c-7.869,9.746-21.537,16.879-34.01,17.748
			C182.824,197.466,181.963,197.496,181.116,197.496z"/>
		<path style="fill:#FFFFFF;" d="M347.984,227.096c-0.029,0-0.057-0.001-0.087-0.004c-0.324-0.028-0.598-0.214-0.737-0.497
			c-1.496-3.065-2.787-5.048-4.189-6.426c-0.377-0.371-0.353-1.004,0.054-1.413c0.407-0.411,1.042-0.439,1.419-0.069
			c1.347,1.326,2.581,3.112,3.926,5.696c3.196-3.318,6.933-6.57,11.129-9.683c0.462-0.346,1.085-0.271,1.39,0.162
			c0.306,0.433,0.178,1.061-0.285,1.404c-4.531,3.362-8.51,6.885-11.823,10.471C348.571,226.966,348.279,227.096,347.984,227.096z"
			/>
		<path style="fill:#407BFF;" d="M311.168,293.334c-6.192,0-10.79-5.037-10.25-11.229c0.54-6.192,6.017-11.229,12.209-11.229
			c6.192,0,10.79,5.037,10.25,11.229C322.837,288.297,317.361,293.334,311.168,293.334z M312.953,272.875
			c-5.089,0-9.591,4.141-10.034,9.229c-0.444,5.089,3.336,9.229,8.424,9.229c5.089,0,9.591-4.141,10.034-9.229
			C321.821,277.016,318.042,272.875,312.953,272.875z"/>
		<path style="fill:#407BFF;" d="M215.019,231.348c-6.192,0-10.79-5.038-10.25-11.23c0.54-6.192,6.017-11.23,12.209-11.23
			s10.79,5.037,10.25,11.23C226.688,226.31,221.212,231.348,215.019,231.348z M216.804,210.888c-5.089,0-9.591,4.141-10.035,9.23
			c-0.444,5.09,3.336,9.23,8.424,9.23c5.089,0,9.591-4.141,10.035-9.23C225.672,215.029,221.893,210.888,216.804,210.888z"/>
	</g>
</g>
<g id="Character_1_">
	<path style="opacity:0.1;" d="M234.538,258.24H130.641c-4.125,0-7.206-3.375-6.846-7.5l0,0c0.36-4.125,4.029-7.5,8.154-7.5h103.897
		c4.125,0,7.206,3.375,6.846,7.5l0,0C242.332,254.865,238.663,258.24,234.538,258.24z"/>
	<g>
		<g>
			<path style="fill:#FF8B7B;" d="M96.391,234.407l3.899,1.676l-5.233,6.405c0,0-1.447-2.441-2.116-5.054
				c-0.279-1.092,0.362-2.207,1.45-2.496L96.391,234.407z"/>
			<path style="fill:#FF8B7B;" d="M102.083,242.961l-2.34,2.597c-0.76,0.844-2.111,0.749-2.746-0.193l-1.94-2.877l5.233-6.405
				l2.107,5.035C102.658,241.741,102.535,242.459,102.083,242.961z"/>
			<path style="fill:#407BFF;" d="M239.638,255.719L104.395,245.01c-4.112-0.326-6.917-3.933-6.232-8.017l0,0
				c0.684-4.084,4.609-7.158,8.721-6.833l135.243,10.709c4.112,0.326,6.917,3.933,6.232,8.017l0,0
				C247.674,252.969,243.75,256.044,239.638,255.719z"/>
		</g>
		<g>
			<path style="fill:#FF8B7B;" d="M144.207,192.608c1.69,3.814,3.423,7.721,5.176,11.526c1.746,3.789,3.553,7.654,5.495,10.951
				c0.479,0.807,0.969,1.554,1.373,2.044c0.599,0.711,1.266,1.441,1.954,2.191c1.388,1.488,2.874,2.979,4.361,4.48
				c2.986,2.99,6.031,6.029,8.989,9.132l-3.028,3.907c-3.811-2.188-7.447-4.556-11.002-7.138c-1.781-1.287-3.526-2.63-5.262-4.092
				c-0.875-0.724-1.734-1.507-2.61-2.358c-1.061-1.084-1.807-2.105-2.512-3.089c-2.711-3.933-4.726-7.789-6.728-11.725
				c-1.957-3.945-3.745-7.878-5.411-11.973L144.207,192.608z"/>
			<path style="fill:#FF8B7B;" d="M111.137,192.042c-2.267,3.71-4.6,7.438-6.927,11.133l-6.948,11.076l-0.848,1.383l-0.106,0.173
				l-0.052,0.085l-0.008,0.017c-0.012,0.022-0.028,0.042-0.048,0.061c-0.042,0.036-0.076,0.165-0.13,0.24
				c-0.18,0.452-0.353,1.231-0.425,2.082c-0.14,1.732-0.039,3.765,0.172,5.798c0.436,4.086,1.24,8.393,2.1,12.563l-4.633,1.723
				c-2.097-4.129-3.777-8.309-4.995-12.882c-0.578-2.298-1.08-4.654-1.17-7.334c-0.031-1.349-0.003-2.785,0.426-4.455
				c0.138-0.44,0.241-0.849,0.438-1.31l0.306-0.686l0.129-0.266l0.095-0.188l0.764-1.502c2.051-3.99,4.215-7.88,6.446-11.722
				c2.241-3.843,4.549-7.608,6.995-11.346L111.137,192.042z"/>
			<path style="fill:#263238;" d="M137.605,164.305c-0.185,0.498-0.076,1.01,0.245,1.144c0.32,0.133,0.73-0.162,0.916-0.66
				c0.185-0.498,0.076-1.01-0.245-1.144S137.79,163.807,137.605,164.305z"/>
			<path style="fill:#FF5652;" d="M137.484,165.296c0,0,0.045,3.338,0.756,5.235c-1.173,0.461-2.508-0.529-2.508-0.529
				L137.484,165.296z"/>
			<path style="fill:#263238;" d="M139.43,161.385c-0.061-0.009-0.119-0.036-0.167-0.08c-0.035-0.033-0.876-0.797-2.184-0.473
				c-0.165,0.041-0.336-0.06-0.378-0.228c-0.041-0.167,0.061-0.336,0.228-0.378c1.648-0.408,2.717,0.583,2.762,0.625
				c0.124,0.118,0.13,0.314,0.012,0.439C139.631,161.368,139.528,161.4,139.43,161.385z"/>
			<path style="fill:#FF8B7B;" d="M119.366,165.289c-0.623,5.383,0.402,12.158-3.28,14.86c0,0,0.771,5.054,9.623,6.369
				c9.734,1.446,5.183-4.169,5.183-4.169c-5.173-2.065-4.602-6.009-3.27-9.594L119.366,165.289z"/>
			<path style="fill:#263238;" d="M112.95,183.534c-0.125-2.484,0.011-6.226,1.538-6.765c1.68-0.594,11.614,0.196,16.593,4.706
				c-1.868,3.532-1.699,7.263-1.699,7.263L112.95,183.534z"/>
			<path style="fill:#407BFF;" d="M82.571,406.571c-0.86,0-2.118-0.496-2.586-0.739c-0.054-0.028-0.087-0.086-0.083-0.147
				c0.003-0.061,0.042-0.114,0.099-0.137c0.085-0.033,2.086-0.802,2.979-0.363c0.211,0.103,0.35,0.265,0.412,0.478
				c0.118,0.402-0.019,0.618-0.153,0.73C83.084,406.52,82.848,406.571,82.571,406.571z M80.464,405.715
				c0.918,0.402,2.226,0.725,2.576,0.437c0.034-0.027,0.137-0.112,0.053-0.4c-0.038-0.128-0.12-0.222-0.251-0.286
				C82.308,405.203,81.151,405.488,80.464,405.715z"/>
			<path style="fill:#407BFF;" d="M80.058,405.85c-0.041,0-0.082-0.017-0.111-0.048c-0.04-0.04-0.054-0.099-0.038-0.152
				c0.022-0.077,0.566-1.897,1.438-2.327c0.229-0.113,0.462-0.126,0.691-0.037c0.359,0.139,0.4,0.394,0.393,0.533
				c-0.041,0.751-1.609,1.833-2.333,2.025C80.084,405.848,80.071,405.85,80.058,405.85z M81.735,403.539
				c-0.083,0-0.166,0.021-0.251,0.063c-0.521,0.258-0.964,1.236-1.179,1.836c0.752-0.333,1.789-1.19,1.813-1.636
				c0.002-0.045,0.008-0.148-0.192-0.226C81.862,403.552,81.799,403.539,81.735,403.539z"/>
			<path style="fill:#407BFF;" d="M132.837,409.478c-0.786,0-1.601-0.101-2.022-0.184c-0.063-0.013-0.112-0.063-0.123-0.127
				c-0.012-0.065,0.019-0.128,0.074-0.161c0.33-0.194,3.252-1.866,3.958-0.709c0.198,0.324,0.128,0.553,0.034,0.688
				C134.494,409.362,133.682,409.478,132.837,409.478z M131.313,409.061c1.239,0.175,2.904,0.152,3.189-0.255
				c0.024-0.035,0.089-0.128-0.044-0.347C134.058,407.804,132.282,408.553,131.313,409.061z"/>
			<path style="fill:#407BFF;" d="M130.845,409.298c-0.031,0-0.061-0.01-0.088-0.027c-0.045-0.031-0.071-0.083-0.067-0.138
				c0.004-0.075,0.112-1.846,0.923-2.538c0.248-0.212,0.536-0.299,0.86-0.271c0.438,0.044,0.565,0.269,0.596,0.448
				c0.126,0.763-1.371,2.152-2.159,2.512C130.889,409.293,130.867,409.298,130.845,409.298z M132.348,406.629
				c-0.198,0-0.373,0.066-0.533,0.203c-0.531,0.454-0.724,1.521-0.786,2.034c0.792-0.481,1.809-1.583,1.731-2.044
				c-0.006-0.039-0.026-0.159-0.318-0.189C132.409,406.631,132.378,406.629,132.348,406.629z"/>
			<polygon style="fill:#FF8B7B;" points="123.605,409.142 130.189,409.142 130.256,393.895 123.672,393.895 			"/>
			<polygon style="fill:#FF8B7B;" points="72.613,404.424 78.779,405.849 83.956,390.768 77.79,389.342 			"/>
			<path style="fill:#263238;" d="M79.739,404.828l-7.174-1.802c-0.261-0.066-0.526,0.061-0.636,0.304l-2.468,5.414
				c-0.256,0.562,0.088,1.24,0.694,1.381c2.514,0.586,3.761,0.743,6.916,1.535c1.941,0.487,5.897,1.695,8.577,2.368
				c2.621,0.658,3.593-1.915,2.547-2.433c-4.691-2.322-6.229-4.286-7.503-6.112C80.462,405.155,80.121,404.923,79.739,404.828z"/>
			<path style="fill:#263238;" d="M130.116,408.379h-7.19c-0.269,0-0.495,0.187-0.543,0.45l-1.075,5.852
				c-0.111,0.607,0.371,1.182,0.992,1.171c2.592-0.044,6.334-0.196,9.593-0.196c3.812,0,3.886,0.208,8.356,0.208
				c2.703,0,3.347-2.733,2.206-2.98c-5.194-1.127-6.178-1.247-10.735-3.992C131.227,408.594,130.684,408.379,130.116,408.379z"/>
			<g>
				<path style="fill:#407BFF;" d="M108.378,179.7c-6.257,0.5-15.088,16.196-15.088,16.196l11.335,10.272
					c0,0,5.358-5.844,9.61-12.641C118.691,186.405,114.776,179.189,108.378,179.7z"/>
				<path style="opacity:0.6;fill:#FFFFFF;" d="M108.378,179.7c-6.257,0.5-15.088,16.196-15.088,16.196l11.335,10.272
					c0,0,5.358-5.844,9.61-12.641C118.691,186.405,114.776,179.189,108.378,179.7z"/>
			</g>
			<path style="opacity:0.2;" d="M111.585,191.022l-7.495,14.659l0.532,0.487c0,0,2.896-3.167,6.131-7.542L111.585,191.022z"/>
			<g>
				<path style="fill:#407BFF;" d="M139.746,214.901c-1.128,7.262-2.911,16.238-5.661,27.299l-34.837-5.177
					c0.322-4.993,5.651-27.296,4.602-51.222c-0.148-3.367,2.571-6.171,5.94-6.094c1.716,0.039,3.615,0.131,5.474,0.316
					c4.473,0.447,10.934,1.262,14.804,2.2c5.107,1.239,9.818,3.307,9.818,3.307s2.5,3.669,1.154,18.935
					C140.773,207.48,140.36,210.934,139.746,214.901z"/>
				<path style="opacity:0.6;fill:#FFFFFF;" d="M139.746,214.901c-1.128,7.262-2.911,16.238-5.661,27.299l-34.837-5.177
					c0.322-4.993,5.651-27.296,4.602-51.222c-0.148-3.367,2.571-6.171,5.94-6.094c1.716,0.039,3.615,0.131,5.474,0.316
					c4.473,0.447,10.934,1.262,14.804,2.2c5.107,1.239,9.818,3.307,9.818,3.307s2.5,3.669,1.154,18.935
					C140.773,207.48,140.36,210.934,139.746,214.901z"/>
			</g>
			<path style="opacity:0.2;" d="M139.746,214.901c-2.829-1.787-5.478-10.017-4.285-14.333l5.579,3.898
				C140.773,207.48,140.36,210.934,139.746,214.901z"/>
			<g>
				<path style="fill:#407BFF;" d="M131.923,189.979c-1.799,6.005,9.096,23.674,9.096,23.674l13.034-6.806
					c0,0-2.96-8.9-7.646-15.752C141.172,183.442,133.949,183.215,131.923,189.979z"/>
				<path style="opacity:0.6;fill:#FFFFFF;" d="M131.923,189.979c-1.799,6.005,9.096,23.674,9.096,23.674l13.034-6.806
					c0,0-2.96-8.9-7.646-15.752C141.172,183.442,133.949,183.215,131.923,189.979z"/>
			</g>
			<g>
				<polygon style="opacity:0.2;" points="130.255,393.9 130.221,401.758 123.635,401.758 123.668,393.9 				"/>
				<polygon style="opacity:0.2;" points="77.787,389.346 83.956,390.772 81.285,398.545 75.116,397.12 				"/>
			</g>
			<path style="fill:#FF8B7B;" d="M121.649,156.436c-1.907,6.271-3.336,9.833-1.464,14.239c2.816,6.629,11.289,6.924,14.998,1.417
				c3.338-4.957,5.896-14.379,0.909-19.269C131.18,148.005,123.556,150.165,121.649,156.436z"/>
			<path style="fill:#263238;" d="M131.722,163.333c-0.75,3.208-2.701,9-7.505,9.667c-2.672,0.371-7.133-0.417-7.55-2.583
				c-0.417-2.167,1.25-1.866,0.833-3.641c-0.417-1.775-2.611-7.952-0.125-12.359c-3.458,0.292-1.083-4.833,5.125-6.042
				c-1.917-0.75-1-5.968,8.581-3.5c4.483,1.155,7.807,2.917,8.211,5.321c4.075,1.721,5.154,6.054,2.625,7.638
				c-2.45,1.534-6.184-0.208-6.184-0.208S137.458,166.833,131.722,163.333z"/>
			<path style="fill:#FF8B7B;" d="M129.115,162.835c-0.12,1.524,0.442,3.012,1.233,4.017c1.189,1.513,1.589,1.532,2.083-0.158
				c0.445-1.521,1.541-4.921-0.049-5.828C130.815,159.972,129.253,161.092,129.115,162.835z"/>
			<path style="fill:#263238;" d="M121.727,240.365c0,0-5.405,51.624-8.779,70.473c-3.695,20.641-28.282,87.039-28.282,87.039
				L72.97,394.94c6.021-22.97,14.886-65.833,20.299-82.23c4.08-24.931,0.021-56.265,5.983-75.684L121.727,240.365z"/>
			<g>
				<path style="fill:#407BFF;" d="M87.449,393.995c0.05,0.013-2.162,4.231-2.162,4.231l-13.158-3.305l1.093-3.986L87.449,393.995z"
					/>
			</g>
			<path style="opacity:0.2;" d="M118.386,260.496c0.403-0.081,0.78-0.09,1.138-0.027c-1.739,15.423-4.194,36.026-6.139,47.811
				C111.773,291.154,110.267,262.1,118.386,260.496z"/>
			<path style="fill:#263238;" d="M134.083,242.201c0,0,2.731,55.177,3.126,75.25c0.412,20.879-4.593,82.786-4.593,82.786h-11.153
				c0,0-4.213-57.403-1.938-85.403c-2.691-21.333-8.338-76.035-8.338-76.035L134.083,242.201z"/>
			<path style="fill:#FF8B7B;" d="M174.349,232.301c-1.589-0.141-3.732,0.082-5.339,0.758l-0.809,1.337
				c-0.689,1.139-0.133,2.624,1.136,3.029l3.909,1.247l1.909,0.581c0.828,0.252,1.724-0.052,2.228-0.756l0.817-1.141
				c0.598-0.835,0.473-1.985-0.289-2.673l-1.763-1.59C175.649,232.641,175.02,232.361,174.349,232.301z"/>
			<g>
				<path style="fill:#407BFF;" d="M134.59,395.794c0.051,0-0.451,4.63-0.451,4.63h-13.567l-0.526-4.132L134.59,395.794z"/>
			</g>
		</g>
	</g>
</g>
</svg>
